<?xml version="1.0" encoding="UTF-8"?>
<svg version="1.1" xmlns="http://www.w3.org/2000/svg" width="192" height="192">
<path d="M0 0 C0.4640625 0.41636719 0.928125 0.83273438 1.40625 1.26171875 C1.40625 1.92171875 1.40625 2.58171875 1.40625 3.26171875 C1.963125 3.50921875 2.52 3.75671875 3.09375 4.01171875 C7.35338924 6.31422645 10.80418701 9.15319824 13.40625 13.26171875 C13.40625 13.92171875 13.40625 14.58171875 13.40625 15.26171875 C14.06625 15.26171875 14.72625 15.26171875 15.40625 15.26171875 C27.99504828 32.49142059 33.89467281 53.09748806 30.8671875 74.33984375 C28.61508598 88.3100642 23.23958854 99.51171094 15.40625 111.26171875 C14.74625 111.26171875 14.08625 111.26171875 13.40625 111.26171875 C13.15875 111.81859375 12.91125 112.37546875 12.65625 112.94921875 C10.3537423 117.20885799 7.51477051 120.65965576 3.40625 123.26171875 C2.74625 123.26171875 2.08625 123.26171875 1.40625 123.26171875 C1.40625 123.92171875 1.40625 124.58171875 1.40625 125.26171875 C-16.51206312 138.35364753 -37.47503043 143.73289685 -59.45483398 140.53833008 C-71.54483911 138.50256609 -85.33919624 133.56511004 -94.59375 125.26171875 C-94.59375 124.60171875 -94.59375 123.94171875 -94.59375 123.26171875 C-95.4290625 122.89046875 -95.4290625 122.89046875 -96.28125 122.51171875 C-100.54088924 120.20921105 -103.99168701 117.37023926 -106.59375 113.26171875 C-106.59375 112.60171875 -106.59375 111.94171875 -106.59375 111.26171875 C-107.25375 111.26171875 -107.91375 111.26171875 -108.59375 111.26171875 C-121.68567878 93.34340563 -127.0649281 72.38043832 -123.87036133 50.40063477 C-121.83459734 38.31062964 -116.89714129 24.51627251 -108.59375 15.26171875 C-107.93375 15.26171875 -107.27375 15.26171875 -106.59375 15.26171875 C-106.34625 14.70484375 -106.09875 14.14796875 -105.84375 13.57421875 C-103.5412423 9.31457951 -100.70227051 5.86378174 -96.59375 3.26171875 C-95.93375 3.26171875 -95.27375 3.26171875 -94.59375 3.26171875 C-94.59375 2.60171875 -94.59375 1.94171875 -94.59375 1.26171875 C-65.92907615 -19.6819865 -29.19282184 -19.87944024 0 0 Z " fill="#020101" transform="translate(142.59375,32.73828125)"/>
<path d="M0 0 C5.94 0 11.88 0 18 0 C18 25.41 18 50.82 18 77 C12.06 77 6.12 77 0 77 C0 51.59 0 26.18 0 0 Z " fill="#A4A4A4" transform="translate(127,62)"/>
<path d="M0 0 C5.94 0 11.88 0 18 0 C18 25.41 18 50.82 18 77 C12.06 77 6.12 77 0 77 C0 51.59 0 26.18 0 0 Z " fill="#9E9E9E" transform="translate(83,62)"/>
<path d="M0 0 C4.62 0 9.24 0 14 0 C14 25.41 14 50.82 14 77 C9.38 77 4.76 77 0 77 C0 51.59 0 26.18 0 0 Z " fill="#A3A3A3" transform="translate(44,62)"/>
<path d="M0 0 C5.28 0 10.56 0 16 0 C16 17.16 16 34.32 16 52 C10.72 52 5.44 52 0 52 C0 34.84 0 17.68 0 0 Z " fill="#9E9E9E" transform="translate(63,62)"/>
<path d="M0 0 C5.61 0 11.22 0 17 0 C17 13.86 17 27.72 17 42 C11.39 42 5.78 42 0 42 C0 28.14 0 14.28 0 0 Z " fill="#A0A0A0" transform="translate(105,97)"/>
<path d="M0 0 C5.61 0 11.22 0 17 0 C17 9.9 17 19.8 17 30 C11.39 30 5.78 30 0 30 C0 20.1 0 10.2 0 0 Z " fill="#A0A0A0" transform="translate(105,62)"/>
<path d="M0 0 C5.28 0 10.56 0 16 0 C16 6.93 16 13.86 16 21 C10.72 21 5.44 21 0 21 C0 14.07 0 7.14 0 0 Z " fill="#9E9E9E" transform="translate(63,118)"/>
</svg>
